<svg xmlns="http://www.w3.org/2000/svg" id="eae92b3c-f2dd-4107-b6f3-1e0441e28c2a" width="886.295" height="670.668" data-name="Layer 1" viewBox="0 0 886.295 670.668"><title>redesign_feedback</title><path fill="#e6e6e6" d="M832.0229,761.21947c-.12009-.19624-2.95175-4.92435-3.93345-14.74237-.90044-9.00753-.32144-24.19041,7.55261-45.36929,14.91714-40.122-3.43774-72.49457-3.62529-72.817l.90555-.52534a80.35978,80.35978,0,0,1,7.58174,21.47834,93.703,93.703,0,0,1-3.88081,52.22892c-14.8916,40.05349-3.82051,59.01446-3.70706,59.2015Z" transform="translate(-156.8525 -114.66617)"/><circle cx="669.337" cy="504.466" r="6.803" fill="#3f3d56"/><circle cx="690.793" cy="529.584" r="6.803" fill="#3f3d56"/><circle cx="676.14" cy="546.33" r="6.803" fill="#e6e6e6"/><circle cx="693.933" cy="560.459" r="6.803" fill="#e6e6e6"/><circle cx="670.907" cy="582.438" r="6.803" fill="#3f3d56"/><path fill="#e6e6e6" d="M836.13265,761.46988s-6.80291-16.74564,13.60583-29.30486Z" transform="translate(-156.8525 -114.66617)"/><path fill="#e6e6e6" d="M827.76612,761.16612s-3.09606-17.80759-27.05911-17.655Z" transform="translate(-156.8525 -114.66617)"/><ellipse cx="717.919" cy="653.786" fill="#3f3d56" rx="167.624" ry="16.882"/><rect width="703.576" height="450.601" fill="#3f3d56"/><circle cx="21.912" cy="14.883" r="5.54" fill="#006d8b"/><circle cx="42.94" cy="14.883" r="5.54" fill="#006d8b"/><circle cx="63.968" cy="14.883" r="5.54" fill="#006d8b"/><rect width="120.502" height="6.917" x="424.214" y="184.814" fill="#e6e6e6"/><rect width="186.081" height="6.917" x="424.214" y="210.046" fill="#006d8b"/><rect width="151.652" height="6.917" x="424.214" y="233.818" fill="#e6e6e6"/><rect width="88.532" height="6.917" x="424.214" y="257.501" fill="#e6e6e6"/><rect width="133.618" height="6.917" x="424.214" y="281.184" fill="#e6e6e6"/><rect width="14.755" height="14.755" x="369.291" y="182.354" fill="#e6e6e6"/><rect width="14.755" height="14.755" x="369.291" y="206.127" fill="#006d8b"/><rect width="14.755" height="14.755" x="369.291" y="229.899" fill="#e6e6e6"/><rect width="14.755" height="14.755" x="369.291" y="253.672" fill="#e6e6e6"/><rect width="14.755" height="14.755" x="369.291" y="277.444" fill="#e6e6e6"/><path fill="#ff6584" d="M719.22352,391.75491H685.921a116.47683,116.47683,0,0,1,0-39.70682h33.3025A71.446,71.446,0,0,0,719.22352,391.75491Z" transform="translate(-156.8525 -114.66617)"/><circle cx="184.058" cy="220.234" r="89.47" fill="#006d8b"/><path fill="#fff" d="M345.91017,250.47874h-10v-10h10Zm-8-2h6v-6h-6Z" transform="translate(-156.8525 -114.66617)"/><rect width="53" height="2" x="187.293" y="129.813" fill="#fff"/><circle cx="240.293" cy="130.813" r="2.083" fill="#fff"/><rect width="52" height="2" x="128.293" y="129.813" fill="#fff"/><circle cx="128.293" cy="130.813" r="2.083" fill="#fff"/><path fill="#fff" d="M435.14552,339.66429h-10v-10h10Zm-8-2h6v-6h-6Z" transform="translate(-156.8525 -114.66617)"/><rect width="2" height="52" x="272.293" y="224.233" fill="#fff"/><circle cx="273.293" cy="276.234" r="2.083" fill="#fff"/><rect width="2" height="52" x="272.293" y="164.233" fill="#fff"/><circle cx="273.293" cy="164.234" r="2.083" fill="#fff"/><path fill="#fff" d="M256.14552,339.66429h-10v-10h10Zm-8-2h6v-6h-6Z" transform="translate(-156.8525 -114.66617)"/><rect width="2" height="52" x="93.293" y="224.233" fill="#fff"/><circle cx="94.293" cy="276.234" r="2.083" fill="#fff"/><rect width="2" height="54" x="93.293" y="162.233" fill="#fff"/><circle cx="94.293" cy="164.234" r="2.083" fill="#fff"/><path fill="#fff" d="M345.91017,429.47874h-10v-10h10Zm-8-2h6v-6h-6Z" transform="translate(-156.8525 -114.66617)"/><rect width="53" height="2" x="188.293" y="308.813" fill="#fff"/><circle cx="240.293" cy="309.813" r="2.083" fill="#fff"/><rect width="52" height="2" x="128.293" y="308.813" fill="#fff"/><circle cx="128.293" cy="309.813" r="2.083" fill="#fff"/><path fill="#e6e6e6" d="M390.61467,470.32508H351.84589a135.59545,135.59545,0,0,1,0-46.22432h38.76878A83.17321,83.17321,0,0,0,390.61467,470.32508Z" transform="translate(-156.8525 -114.66617)"/><path fill="#fbbebe" d="M903.74053,460.78243l-9.07766,33.717s-4.53883,27.233,3.242,27.88139,5.83564-27.233,5.83564-27.233l14.91331-23.34257Z" transform="translate(-156.8525 -114.66617)"/><path fill="#2f2e41" d="M971.1746,478.41383V467.85051l-61.58688-4.15026-9.73761,62.24853s-1.29681,62.05951,3.242,93.74947,13.61649,105.63321,13.61649,105.63321h41.49789L947.832,571.5031l46.68513,153.82836,48.63033-5.94186L986.73631,537.83251S987.38472,504.16193,971.1746,478.41383Z" transform="translate(-156.8525 -114.66617)"/><path fill="#2f2e41" d="M921.89586,718.199l-2.59362,20.10054-3.89042,14.2649s-18.15533,3.89043-7.13245,10.37448,21.39734,0,21.39734,0l8.42926-11.67129v20.10054h12.96809V742.83839L941.348,721.441Z" transform="translate(-156.8525 -114.66617)"/><path fill="#2f2e41" d="M1002.298,718.199l-2.59362,20.10054-3.89043,14.2649s-18.15532,3.89043-7.13245,10.37448,21.39735,0,21.39735,0l8.42926-11.67129v20.10054h12.96809V742.83839l-9.72607-21.39735Z" transform="translate(-156.8525 -114.66617)"/><circle cx="788.71" cy="218.705" r="22.046" fill="#fbbebe"/><polygon fill="#fbbebe" points="803.299 228.107 821.455 250.152 799.409 258.582 789.034 237.833 803.299 228.107"/><path fill="#e6e6e6" d="M949.12885,366.11537l3.13532-.86182s16.31681-10.16106,20.85565-9.51265,18.80373,14.9133,16.21011,34.36544,2.59362,92.07343-7.78085,89.47982-13.6165-4.53883-13.6165-4.53883l-12.31969-5.83565-11.67128,3.242s-7.13245-4.53883-12.96809-3.242-24.63937-5.18723-24.63937-5.18723Z" transform="translate(-156.8525 -114.66617)"/><path fill="#e6e6e6" d="M953.73456,368.19435s-14.656-6.942-21.14,3.43246-24.63937,65.48885-24.63937,65.48885l-8.42925,25.28778,20.74894,12.31968,40.84948-75.21492S967.09374,377.08157,953.73456,368.19435Z" transform="translate(-156.8525 -114.66617)"/><path fill="#2f2e41" d="M943.26035,336.80908c-1.38564-2.13275-.68538-5.03268-1.65713-7.38307-1.52593-3.69086-6.26843-4.5555-10.24807-4.89225a30.54552,30.54552,0,0,0-7.94023.02125,7.6208,7.6208,0,0,0-5.50688,3.99269c-.5888,1.18084-.44022-2.51893-.063-7.2683a22.95739,22.95739,0,0,1,17.60636-20.5384q.08433-.01981.16715-.03892c4.84533-1.11777,9.84138-1.94035,14.78-1.36016s9.86121,2.71207,12.94332,6.61427c1.40867,1.78348,2.40474,3.88661,3.97722,5.52746,2.76285,2.883,6.8587,3.932,10.62107,5.26971a32.0464,32.0464,0,0,1,11.646,6.719,17.36958,17.36958,0,0,1,5.62952,11.9366c.07949,5.26723-3.27111,10.70305-8.67011,11.74151a6.06156,6.06156,0,0,0-2.589,1.11728c-5.15519,3.99715.72553,8.18146.68478,12.68135-.034,3.75483-4.214,6.202-7.965,6.3771a15.11276,15.11276,0,0,1-15.0521-11.95783c-.56546-3.08147-.12881-6.24637.23906-9.35762.42109-3.56142-7.24851-11.94739-2.18218-5.8007a8.81536,8.81536,0,0,1,1.937,4.07843c.84322,4.91044-3.62532,6.56215-6.44322,9.283a11.67616,11.67616,0,0,0-2.8264,12.01857A13.46137,13.46137,0,0,1,949.902,348.591c.90773-1.39212,2.07725-2.60324,2.938-4.02486,1.34319-2.2183,1.71361-7.04329-2.046-6.91079C948.11059,337.74992,945.32307,339.984,943.26035,336.80908Z" transform="translate(-156.8525 -114.66617)"/><polygon points="796.491 306.888 766.664 354.088 794.894 302.109 796.491 306.888" opacity=".2"/><rect width="49.01" height="49.01" x="552.737" y="603.889" fill="#006d8b"/><rect width="24.458" height="24.458" x="585.594" y="631.888" fill="#e6e6e6"/><path fill="#e6e6e6" d="M839.64063,541.4668h-662v-395h662Zm-660-2h658v-391h-658Z" transform="translate(-156.8525 -114.66617)"/></svg>